<svg xmlns="http://www.w3.org/2000/svg" width="24" height="24" viewBox="0 0 24 24" fill="none">
  <path d="M17.0365 0H6.97548C2.6053 0 0 2.604 0 6.972V17.016C0 21.396 2.6053 24 6.97548 24H17.0245C21.3947 24 24 21.396 24 17.028V6.972C24.012 2.604 21.4067 0 17.0365 0ZM16.04 14.76C16.3882 15.108 16.3882 15.684 16.04 16.032C15.8599 16.212 15.6318 16.296 15.4037 16.296C15.1756 16.296 14.9474 16.212 14.7674 16.032L12.006 13.272L9.24461 16.032C9.06452 16.212 8.8364 16.296 8.60829 16.296C8.38018 16.296 8.15206 16.212 7.97197 16.032C7.6238 15.684 7.6238 15.108 7.97197 14.76L10.7333 12L7.97197 9.24C7.6238 8.892 7.6238 8.316 7.97197 7.968C8.32015 7.62 8.89643 7.62 9.24461 7.968L12.006 10.728L14.7674 7.968C15.1155 7.62 15.6918 7.62 16.04 7.968C16.3882 8.316 16.3882 8.892 16.04 9.24L13.2786 12L16.04 14.76Z" fill="#171717"/>
</svg>